<svg xmlns="http://www.w3.org/2000/svg" width="400" height="600" viewBox="0 0 400 600">
<defs><linearGradient id="g" x1="0" y1="0" x2="0" y2="1"><stop offset="0%" stop-color="#a855f7"/><stop offset="100%" stop-color="#6d28d9"/></linearGradient></defs>
<rect width="400" height="600" fill="url(#g)"/><rect x="14" y="14" width="372" height="572" rx="14" fill="none" stroke="rgba(255,255,255,0.28)" stroke-width="2"/>
<path d="M75 470 Q105 320 200 320 Q295 320 325 470 L325 500 L75 500 Z" fill="#7c3aed"/><rect x="178" y="289" width="44" height="40" rx="10" fill="#e0ac69"/><circle cx="94" cy="213" r="16" fill="#e0ac69"/><circle cx="306" cy="213" r="16" fill="#e0ac69"/><ellipse cx="200" cy="205" rx="102" ry="110" fill="#e0ac69"/><path d="M92 117 Q200 91 308 117 L308 245 L308 301 L272 277 L92 301 L92 245 Z" fill="#f59e0b"/><line x1="148" y1="185" x2="190" y2="179" stroke="#1f2937" stroke-width="6"/><line x1="252" y1="185" x2="210" y2="179" stroke="#1f2937" stroke-width="6"/><ellipse cx="166" cy="203" rx="21" ry="25" fill="#fff"/><ellipse cx="234" cy="203" rx="21" ry="25" fill="#fff"/><circle cx="166" cy="206" r="11.55" fill="#3b82f6"/><circle cx="234" cy="206" r="11.55" fill="#3b82f6"/><circle cx="162.22" cy="202" r="4.62" fill="#fff"/><circle cx="230.22" cy="202" r="4.62" fill="#fff"/><path d="M200 217 Q193 227 198 231" fill="none" stroke="rgba(0,0,0,0.35)" stroke-width="4"/><path d="M178 249 Q200 267 222 249" fill="none" stroke="#7f1d1d" stroke-width="5"/>
<text x="200" y="522" text-anchor="middle" font-family="Arial" font-size="34" font-weight="800" fill="#fff">Robot Santa</text>
<text x="200" y="552" text-anchor="middle" font-family="Arial" font-size="20" fill="rgba(255,255,255,0.85)">Futurama</text>
</svg>